<svg xmlns="http://www.w3.org/2000/svg" width="6" height="6" viewBox="0 0 6 6" fill="none">
  <path d="M5.79326 2.90641C5.79326 3.43383 5.63689 3.94941 5.34388 4.38794C5.05086 4.82647 4.63437 5.16826 4.1471 5.3701C3.65983 5.57193 3.12369 5.62474 2.60641 5.52185C2.08913 5.41896 1.61395 5.16497 1.24101 4.79203C0.868072 4.41909 0.614089 3.94394 0.511195 3.42666C0.408301 2.90937 0.461135 2.37319 0.662969 1.88593C0.864803 1.39866 1.20662 0.982185 1.64515 0.689168C2.08368 0.396151 2.59918 0.239746 3.12659 0.239746C3.83384 0.239746 4.51216 0.520716 5.01225 1.02081C5.51235 1.52091 5.79326 2.19917 5.79326 2.90641Z" fill="#079BE6"/>
</svg>